<svg width="500" height="280" version="1.1" viewBox="0 0 125 70" xmlns="http://www.w3.org/2000/svg" xmlns:cc="http://creativecommons.org/ns#" xmlns:dc="http://purl.org/dc/elements/1.1/" xmlns:rdf="http://www.w3.org/1999/02/22-rdf-syntax-ns#">
 <title>Crizacio Cloud</title>
 <g fill-rule="evenodd">
  <path d="m75.264 12.071c12.474-12.569 34.928 5.0278 29.938 12.569 34.928 12.569 7.4845 55.305-17.464 35.194 0 2.5139-9.9794 5.0278-12.474 2.5139-2.4948 5.0278-19.959 7.5416-24.948-2.5139-2.4948 5.0278-14.969 7.5416-22.454 2.5139-19.959 7.5416-42.412-35.194-2.4948-40.222 0-5.0278 9.9794-10.056 14.969-7.5416 0-2.5139 17.464-22.625 34.928-2.5139z" fill="#fff" fill-opacity=".98039" stroke="#000" stroke-linejoin="round" stroke-width="1.5044" style="paint-order:normal"/>
  <g transform="rotate(-14.767 91.936 -27.523)" fill="#333">
   <path d="m69.022 30c1.3043 0 1.3043 1.25 0 2.5s-3.913 1.25-5.2174 0c-0.78261-0.5-1.8261-0.5-2.6087 0-1.3043 1.25-3.913 1.25-5.2174 0-1.3043-1.25-1.3043-2.5 0-2.5 0 0 1.3043 5 5.2174 1.25 1.0435-0.5 1.5652-0.5 2.6087 0 3.913 3.75 5.2174-1.25 5.2174-1.25z" style="paint-order:normal"/>
   <g transform="matrix(.99739 .014939 -.012333 .96183 -.26828 -.6271)">
    <path transform="matrix(.8166 .60123 -.58153 .84812 .27699 .64769)" d="m51.573-0.41198a4.375 2.5 0 0 1-6.1646-0.18242 4.375 2.5 0 0 1 0.29065-3.5234 4.375 2.5 0 0 1 6.1673 0.14975 4.375 2.5 0 0 1-0.23346 3.5248" fill="#ff8000" stroke-linejoin="round" stroke-width="1.0247"/>
    <path d="m44.902 28.001a7.5 7.5 0 0 1-1.8866-8.2346 7.5 7.5 0 0 1 6.9746-4.7667 7.5 7.5 0 0 1 6.9868 4.7489 7.5 7.5 0 0 1-1.8655 8.2393l-5.1117-5.4882z" fill="#333" style="paint-order:normal"/>
    <path transform="matrix(.83302 -.58025 .55775 .8626 .27699 .64769)" d="m57.267 70.143a4.375 2.5 0 0 1-6.1646-0.18242 4.375 2.5 0 0 1 0.29065-3.5234 4.375 2.5 0 0 1 6.1673 0.14975 4.375 2.5 0 0 1-0.23346 3.5248" fill="#ff8000" stroke-linejoin="round" stroke-width="1.0247"/>
    <path d="m69.902 28.001a7.5 7.5 0 0 1-1.8866-8.2346 7.5 7.5 0 0 1 6.9746-4.7667 7.5 7.5 0 0 1 6.9868 4.7489 7.5 7.5 0 0 1-1.8655 8.2393l-5.1117-5.4882z" fill="#333" style="paint-order:normal"/>
   </g>
  </g>
 </g>
 <metadata>
  <rdf:RDF>
   <cc:Work rdf:about="">
    <dc:title>Crizacio Cloud</dc:title>
    <dc:creator>
     <cc:Agent>
      <dc:title>crizacio.com</dc:title>
     </cc:Agent>
    </dc:creator>
   </cc:Work>
  </rdf:RDF>
 </metadata>
</svg>